<?xml version="1.0" encoding="utf-8"?>
<!--
Saved from https://www.seekicon.com/free-icon/map-marker-icon_2.

No Copyright
The person who associated a work with this deed has dedicated the work to the public domain by waiving all of his or her rights to the work worldwide under copyright law, including all related and neighboring rights, to the extent allowed by law.

You can copy, modify, distribute and perform the work, even for commercial purposes, all without asking permission. See Other Information below.
(https://creativecommons.org/publicdomain/zero/1.0/)

Generator: Adobe Illustrator 19.0.0, SVG Export Plug-In . SVG Version: 6.00 Build 0)  -->
<svg version="1.1" id="Layer_1" xmlns="http://www.w3.org/2000/svg" xmlns:xlink="http://www.w3.org/1999/xlink" x="0px" y="0px"
	 viewBox="0 0 512 512" style="enable-background:new 0 0 512 512;" xml:space="preserve">
<style type="text/css">
	.st0{fill:#E74C3C;}
	.st1{fill:#C0392B;}
</style>
<g id="XMLID_1_">
	<path id="XMLID_5_" class="st0" d="M256,0C161.5,0,85.1,76.4,85.1,170.9c0,29.9,7.9,58.3,22.1,83.5c2.4,3.9,4.7,7.9,7.1,11.8
		L256,512l141-245.8c2.4-3.2,3.9-6.3,6.3-10.2l1.6-2.4c14.2-24.4,22.1-52.8,22.1-83.5C426.9,76.4,350.5,0,256,0z M256,85.1
		c47.3,0,85.1,38.6,85.1,85.1c0,47.3-37.8,85.9-85.1,85.9s-85.1-38.6-85.1-85.1C170.9,123.7,208.7,85.1,256,85.1z"/>
	<path id="XMLID_8_" class="st1" d="M256,63.8c-59.1,0-106.3,48-106.3,106.3c0,59.1,48,106.3,106.3,106.3
		c59.1,0,106.3-48,106.3-106.3S315.1,63.8,256,63.8z M256,106.3c35.4,0,63.8,28.4,63.8,63.8s-28.4,63.8-63.8,63.8
		s-63.8-28.4-63.8-63.8S220.6,106.3,256,106.3z"/>
</g>
</svg>
